<?xml version="1.0" encoding="UTF-8"?>
<svg id="Layer_1" data-name="Layer 1" xmlns="http://www.w3.org/2000/svg" width="258.23" height="100" viewBox="0 0 258.23 100">
  <g id="lastname_Path_" data-name="lastname &amp;lt;Path&amp;gt;">
    <path d="M162.29,17.03c1.29-4.35,.92-9.45-2.5-12.75-3.14-3.04-7.56-3.38-11.4-1.51-4.1,1.99-7.47,5.67-10.22,9.22-2.52,3.24-6.05,7.81-4.25,12.14,2.06,4.96,7.79,6.06,12.59,5.64,.8-.07,1.98-1.36,.57-1.32-4.27,.11-7.63,2.77-10.1,6.08-2.79,3.76-4.72,8.21-5.61,12.8-.81,4.15-1.09,8.71,2.75,11.41,3.03,2.13,7.09,2.98,10.75,2.81,4.08-.19,8.16-1.79,10.53-5.25,.27-.4-.16-.63-.49-.69-.51-.1-1.06,.14-1.46,.44-1.58,1.22-3.46,3.11-2.98,5.31,.44,2,2.35,2.88,4.22,2.41l-1.06-.8c-2.13,2.41-3.41,5.33-3.59,8.55-.05,.96,2.12,.51,2.25-.26,.31-1.88,.61-3.86,1.64-5.5s2.91-2.67,4.57-1.36c1.06,.83,1.8,2.19,3.18,2.56,1.3,.35,2.7-.29,3.45-1.35,.59-.84,.78-1.65,2.04-1.35,.95,.23,1.79,.85,2.66,1.27,1.49,.72,3.06,.95,4.68,.61,3.4-.73,5.94-3.42,8.04-6.01l-2.17,.26c.7,6.16,6.71,9.44,12.05,11.06,3.23,.98,6.55,1.62,9.7,2.84,2.93,1.13,5.73,2.62,8.32,4.4s4.86,3.8,6.93,6.08c.97,1.07,1.88,2.19,2.72,3.36,.7,.97,2.74,3.43,1.17,4.5-.66,.45-1.83,.59-2.59,.81s-1.49,.43-2.24,.63c-1.88,.5-3.77,.95-5.67,1.34-3.62,.75-7.3,1.28-10.98,1.63-7.17,.67-14.42,.56-21.57-.32-3.15-.39-7.78-.39-8.18-4.46-.3-3.03,1.04-6.41,2.45-9.02,3.24-6.01,8.69-10.32,14.48-13.72,6-3.52,12.39-6.46,18.82-9.08,14.81-6.05,30.43-10.04,46.32-11.87,1.11-.13,1.84-1.48,.29-1.31-15.02,1.73-29.81,5.35-43.93,10.76-7.05,2.7-13.97,5.84-20.6,9.46-6.18,3.37-12.16,7.52-16.14,13.44-2.59,3.85-7.31,13.66-.63,16.02,1.69,.6,3.55,.75,5.32,.98,1.86,.24,3.72,.44,5.58,.58,3.87,.29,7.76,.36,11.64,.22,7.73-.29,15.42-1.42,22.89-3.4,1.78-.47,3.6-.92,5.32-1.58,1.19-.45,2.27-1.26,2.23-2.65s-1.09-2.74-1.9-3.86c-.96-1.33-2-2.59-3.12-3.79-4.46-4.79-10.09-8.49-16.25-10.68s-14.34-2.65-18.55-8.66c-.91-1.29-1.44-2.75-1.62-4.32-.1-.9-1.9-.08-2.17,.26-1.27,1.57-2.7,3.19-4.47,4.21-2.01,1.16-3.58,.58-5.49-.43-1.41-.74-2.91-1.25-4.51-.86-.69,.17-1.38,.49-1.89,.99-.33,.33-.94,1.66-1.23,1.65-.58-.03-1.45-1.29-1.83-1.67-.51-.5-1.05-.94-1.73-1.2-1.35-.52-2.93-.32-4.25,.23-3.55,1.47-4.47,5.1-5.03,8.55l2.25-.26c.16-2.91,1.21-5.67,3.15-7.87,.68-.77-.49-.95-1.06-.8s-1.17-.69-1.4-1.11c-.33-.62-.39-1.26-.21-1.93,.36-1.32,1.45-2.27,2.49-3.07l-1.95-.25c-3.62,5.29-11.63,4.84-16.63,1.91-1.55-.91-2.78-2.21-3.27-3.96-.52-1.88-.3-3.92,0-5.83,.57-3.75,1.82-7.39,3.71-10.69s4.91-7.75,9.12-7.86l.57-1.32c-3.92,.34-8.34-.6-10.35-4.35s.53-7.46,2.66-10.48c3.71-5.24,11.72-14.89,18.48-8.58,3.38,3.15,3.71,8.04,2.46,12.25-.25,.83,2.01,.53,2.25-.26h0Z" style="fill: #231f20;"/>
  </g>
  <g id="carolyn_Path_" data-name="carolyn &amp;lt;Path&amp;gt;">
    <path d="M32.68,46.11c5.97-9.85,9.19-21.31,9.23-32.83,0-2.93-.17-5.87-.58-8.77-.3-2.1-1.4-4.07-3.85-3.27s-4.6,2.36-6.51,3.85c-2.05,1.6-3.91,3.46-5.6,5.44-3.43,4.02-6.16,8.6-8.65,13.24-2.86,5.32-5.5,10.8-7.48,16.52s-3.25,11.48-3.37,17.42c-.11,5.31,.76,11.25,5.26,14.69,2.08,1.59,4.7,2.35,7.3,1.92,2.9-.48,5.34-2.26,7.33-4.35,2.25-2.36,3.87-5.25,6.18-7.57,2.16-2.18,5.34-3.91,8.42-2.71,.64,.25,2.39-.43,1.66-1.3-2.44-2.93-6.17,1.15-7.62,3.07-1.88,2.48-3.21,6.18-.93,8.89,2.07,2.46,5.71,1.74,7.82-.25,2.96-2.79,2.36-7.06,1.69-10.67-.21-1.13-2.38-.51-2.24,.6,.38,3.17,1.08,6.84,4.41,8.17,1.35,.54,2.94,.58,4.26-.08,1.48-.74,2.15-2.18,2.57-3.7,.17-.61,1.21-4.26,2.43-2.98,.56,.59-.04,2.07-.1,2.77s.03,1.43,.35,2.09c1.35,2.84,5.29,3.02,7.28,.75,1.14-1.31,.86-3.49,2.65-4.22,1.56-.64,3.49-.3,5.08,.01l.46-1.74c-3.07,.22-6.76-.53-8.93,2.28-1.87,2.42,.04,5.34,2.56,6.21,2.28,.78,6.58,1.07,8.04-1.32,1.65-2.71-.82-5.17-2.83-6.7l-.94,1.55c.88-.13,1.67,.26,2.16,1,.53,.8,.24,1.6,.32,2.48,.13,1.47,1.38,2.13,2.76,1.98,3.97-.42,3.33-5.76,3.42-8.56,.15-4.39,.18-8.79-.26-13.17s-1.53-8.52-2.72-12.72c-1.34-4.73-2.65-9.52-2.46-14.48l-.63,.79c1.58-.71,2.33,4.57,2.49,5.33,.44,2.04,.83,4.08,1.17,6.14,.74,4.35,1.28,8.73,1.61,13.12s.23,8.4,.48,12.59c.19,3.21,1.25,6.69,4.43,8.1,2.88,1.27,7.37-.57,7.13-4.14-.08-1.18-1.81-.92-2.22-.09-.8,1.62,.55,3.36,2.22,3.6,2.06,.29,3.81-1.35,4.4-3.19l-2.1,.35c3.4,6.96,6.28,14.16,8.65,21.54l.9-1.13c-3.77,.98-7.86-1.37-8.91-5.12s.8-7.99,4.63-9.15c1.74-.53,3.66-.39,5.29,.43,1.77,.88,3.22,2.37,5.34,2.28s3.48-1.56,5.21-2.47c2.08-1.08,4.53-1.29,6.78-.65,.54,.15,1.23,.06,1.58-.42,.29-.4,.24-1.01-.31-1.17-4.02-1.14-7.63-.19-11.04,2.05-.95,.62-1.81,1.13-2.96,.71-1.01-.37-1.86-1.12-2.8-1.64-1.47-.82-3.12-1.2-4.81-1.18-3.43,.04-6.74,1.86-8.38,4.9s-1.48,6.88,.53,9.63c2.32,3.16,6.55,4.43,10.28,3.46,.45-.12,1.07-.58,.9-1.13-2.42-7.53-5.38-14.85-8.85-21.96-.36-.74-1.89-.32-2.1,.35-.2,.63-.66,1.81-1.49,1.78-.73-.03-1.08-1.02-.81-1.56l-2.22-.09c.11,1.59-1.24,2.96-2.88,2.64s-2.77-1.79-3.37-3.2c-.76-1.8-.8-3.82-.81-5.74s-.06-3.98-.14-5.97c-.36-8-1.35-15.97-3-23.81-.38-1.8-.56-4.15-1.71-5.65-1.01-1.32-2.67-1.64-4.14-.98-.29,.13-.62,.45-.63,.79-.29,7.86,2.98,15.12,4.49,22.69,.81,4.08,1.05,8.23,1.05,12.38,0,2.08-.06,4.16-.14,6.24-.04,.96-.07,1.92-.12,2.88-.04,.78,0,1.86-.52,2.49-.99,1.21-.9-.85-.9-1.43,0-.7-.21-1.38-.6-1.97-.87-1.31-2.5-1.96-4.04-1.74-.64,.1-1.81,.89-.94,1.55,1.28,.98,3.09,2.31,2.74,4.18-.21,1.14-1.06,1.14-2.04,1.18-1.1,.04-2.27,.04-3.3-.42-1.77-.79-2.8-3.13-.84-4.37,1.73-1.1,4.21-.5,6.14-.63,1.03-.07,1.84-1.47,.46-1.74-2.53-.49-5.65-.76-7.85,.86-1.28,.94-1.47,2.15-2.04,3.53-.73,1.76-2.84,1.75-3.68,.08-.76-1.5,.46-3.1-.11-4.64-.45-1.21-1.74-1.63-2.92-1.42-1.31,.23-2.53,1.12-3.19,2.28-.77,1.35-.68,3.16-1.66,4.4-1.23,1.55-3.51,.18-4.39-1.07-1.14-1.64-1.37-3.75-1.6-5.68l-2.24,.6c.46,2.46,1.04,5.34-.1,7.71-.82,1.69-3.09,3.3-4.83,1.87s-1.45-3.94-.6-5.68c.37-.76,3.71-5.81,4.78-4.53l1.66-1.3c-4.62-1.8-9.29,.93-12.32,4.34-3.2,3.6-6.05,9.74-11.48,10.23s-8.59-5.23-9.36-9.76c-.9-5.36-.11-11.11,1.15-16.34,1.33-5.52,3.47-10.83,5.91-15.94,2.27-4.74,4.73-9.45,7.62-13.84,2.66-4.05,5.76-7.88,9.63-10.82,.95-.72,1.93-1.38,2.96-1.97,.45-.26,.91-.5,1.37-.73,.8-.4,1.32-.57,1.67,.38,.39,1.04,.42,2.27,.53,3.37,.15,1.42,.24,2.84,.28,4.26,.38,12.1-2.81,24.16-9.08,34.51-.3,.5,.27,.95,.7,1.02,.6,.1,1.15-.21,1.45-.71h0Z" style="fill: #231f20;"/>
  </g>
</svg>