<?xml version="1.0" encoding="UTF-8"?>
<svg id="Layer_1" data-name="Layer 1" xmlns="http://www.w3.org/2000/svg" width="300" height="74.93" viewBox="0 0 300 74.93">
  <g id="egg_Path_" data-name="egg&amp;lt;Path&amp;gt;">
    <path d="M223.59,43.26c2.35-.11,4.71-.73,6.67-2.08,1.38-.95,2.85-2.7,2.52-4.5-.35-1.93-2.63-2.45-4.29-2.23-1.79,.23-3.51,1.23-4.49,2.76s-1.24,3.36-.37,4.94,2.62,2.56,4.37,3.06c3.69,1.05,8.42,.84,11.65-1.4,.88-.61,1.61-1.37,2.12-2.31s.8-2.09,1.44-2.98c.83-1.15,2.84-.62,4.1-.56,1.68,.08,3.36,.16,5.04,.25,.61,.03,2.69-1.05,1.28-1.34-3.05-.63-6.82-1.14-9.82-.01-1.1,.41-2.25,1.15-2.58,2.35s.34,2.55,1.35,3.26c2.22,1.56,5.55,.95,7.81-.19,2.38-1.21,4.23-3.35,4.79-5.99l-2.53,.51c2.31,5.68,1.68,11.88,.63,17.76-.92,5.16-2.42,11.33-7.44,14.02-2.12,1.13-5.23,1.46-7.11-.36-2.12-2.05,.04-5.62,1.24-7.58,2.84-4.63,7.01-8.31,11.61-11.12,5.93-3.63,12.56-5.9,19.1-8.17,.51-.18,1.25-1,.29-1.14-.6-.09-.84-.87-.76-1.39,.11-.74,.75-1.09,1.4-1.26,1.54-.4,3.22-.22,4.74,.13l1.56-1.32c-2.62-.32-5.52-.52-7.82,1.04-1.61,1.09-2.93,3.48-1.59,5.28,1.26,1.7,3.93,1.45,5.65,.7,2.49-1.09,3.5-3.57,4.27-6l-2.53,.51c1.8,6.23,2.69,12.72,2.51,19.21-.07,2.45-.27,5-1.27,7.27-.45,1.02-1.09,2-1.99,2.68-1.26,.95-2.83,1.01-4.34,.89-2.38-.2-6.23-.41-7.19-3.06-1.02-2.83,1-5.4,2.9-7.28,4.08-4.05,8.61-7.65,13.47-10.72,5.39-3.41,11.17-6.16,17.21-8.22,.38-.13,.97-.52,.69-.96s-1.33-.11-1.67,0c-6.23,2.13-12.22,4.98-17.78,8.5s-10.77,7.49-15.1,12.26c-1.8,1.98-3.38,4.92-2.03,7.58s4.92,2.88,7.46,3.17c2.92,.34,6.02,.09,8.41-1.8,2.01-1.59,2.98-4.09,3.42-6.55,.63-3.57,.47-7.37,.19-10.96-.34-4.3-1.14-8.54-2.33-12.68-.25-.87-2.33-.12-2.53,.51-.45,1.41-.92,2.93-1.94,4.06-.88,.96-2.3,1.12-3.1-.07-.76-1.13-.21-2.77,.76-3.59,1.24-1.03,3.27-.62,4.73-.44,.56,.07,1.37-.04,1.79-.48,.36-.38,.32-.71-.22-.84-2.7-.63-6.1-.68-8.58,.76-.9,.52-1.72,1.37-1.68,2.48,.03,1.04,.74,1.76,1.75,1.91l.29-1.14c-12.11,4.2-25.72,9.15-32.48,20.92-1.25,2.17-3.03,5.51-.98,7.75,1.77,1.94,5.1,2.05,7.47,1.57,6.2-1.28,9.71-6.56,11.23-12.35,1.83-6.98,3.04-15.28,.24-22.16-.32-.79-2.37-.2-2.53,.51-.65,3.06-4.15,6.85-7.57,4.96-1.78-.98-1.93-3.6,.36-3.88s4.49,.04,6.62,.48l1.28-1.34c-2.08-.1-4.16-.2-6.24-.3-1.7-.08-3.47-.19-4.98,.75-1.17,.73-1.71,1.94-2.24,3.15-.64,1.48-1.43,2.7-2.96,3.35-2.62,1.12-6.45,.83-8.92-.56-1.35-.77-2.39-2.11-2.37-3.71,.02-1.31,.72-2.87,1.9-3.53,1.9-1.06,3.19,1.3,2.45,2.9-.93,2.01-3.32,2.91-5.4,3.01-.5,.02-1.41,.16-1.67,.68-.25,.49,.21,.71,.67,.69h0Z" style="fill: #231f20;"/>
  </g>
  <g id="L_Path_" data-name="L&amp;lt;Path&amp;gt;">
    <path d="M180.68,24.71c-4.3,6.04-3.51,14.46,2.12,19.39s14.22,4.26,21.26,2.92c3.52-.67,7.12-1.56,10.06-3.73s4.44-5.36,5.06-8.79c1.31-7.26-.63-15.04-4.49-21.24-1.01-1.61-2.16-3.14-3.45-4.53-1.16-1.26-2.44-2.13-4.22-1.96-3.36,.32-5.91,3.21-7.32,6.06-1.51,3.06-1.96,6.53-2.12,9.91-.19,4.04-.08,8.11-.08,12.15,0,4.58,0,9.17,0,13.75,0,4.05,.17,8.81-4.31,10.56-1.98,.77-4.21,.68-6.3,.55-1.32-.08-3.76-.07-4.39-1.58-1.47-3.55,9.77-2.45,11.38-2.3,8.6,.85,16.99,3.12,25.6,3.82s16.53-.51,24.15-3.84c1.85-.81,3.64-1.73,5.38-2.76,.39-.23,.7-.63,.23-.94s-1.38,0-1.79,.25c-7.05,4.17-15.08,6.27-23.27,6.11s-16.86-2.38-25.28-3.55c-3.99-.55-8.13-1.01-12.16-.66-1.96,.17-8.17,1.34-6.72,4.66,.49,1.12,1.88,1.6,2.98,1.86,1.73,.4,3.67,.4,5.43,.37,3.35-.06,6.97-.88,9.36-3.4,2.62-2.76,2.23-6.81,2.23-10.33,0-4.5,0-9,0-13.5,0-4.03-.13-8.09,.1-12.12,.19-3.27,.66-6.72,2.25-9.64,.78-1.43,1.93-3.09,3.42-3.84,1.79-.9,3.58,1.82,4.55,3.03,2.33,2.94,4.09,6.31,5.22,9.88s1.64,7.33,1.4,11.04c-.23,3.49-1.19,7.26-3.82,9.74s-6.6,3.25-10.12,3.87c-3.73,.65-7.61,1.09-11.37,.32-7.47-1.54-12.56-8.81-10.92-16.37,.41-1.87,1.18-3.6,2.29-5.16,.64-.9-1.88-.67-2.35-.02h0Z" style="fill: #231f20;"/>
  </g>
  <g id="second-d_Path_" data-name="second-d&amp;lt;Path&amp;gt;">
    <path d="M147.1,36.39c-4.01-1.14-9.36-1.77-12.04,2.27-2.14,3.23,.44,6.3,3.84,6.6,3.94,.35,6.94-2.31,8.48-5.73,1.96-4.34,2.86-9.35,3.48-14.05,.76-5.75,.8-11.57,.18-17.33l-2.53,.68c1.71,3.93,1.34,8.25,1.24,12.42s-.12,8.7-.05,13.06,.24,9.07,.5,13.6c.13,2.22,.28,4.45,.45,6.67,.14,1.73,.22,3.53,1.03,5.1,1.78,3.43,6.1,3.4,9.44,3.2,1.27-.08,2.08-1.56,.33-1.46-3.36,.2-6.85-.17-7.81-3.98-.43-1.71-.46-3.53-.59-5.27-.15-2.06-.28-4.12-.39-6.18-.45-8.42-.58-16.86-.37-25.3,.1-4.21,.48-8.59-1.25-12.55-.39-.88-2.63-.28-2.53,.68,1.06,9.75,.31,20.25-3.06,29.52-.67,1.84-1.67,3.98-3.43,5.01-1.32,.78-3.19,.47-4.28-.57-1.49-1.42-.99-3.69,.48-4.93,2.03-1.71,5.09-.71,7.36-.07,.84,.24,2.97-1.01,1.54-1.42h0Z" style="fill: #231f20;"/>
  </g>
  <g id="idot_Path_" data-name="idot&amp;lt;Path&amp;gt;">
    <path d="M122.14,26.85c-.12,.73-.4,1.43-.82,2.04l.1-.14c-.11,.16-.23,.32-.36,.46-.1,.12-.17,.26-.03,.39,.14,.13,.49,.13,.65,.12,.33-.02,.68-.09,.99-.21,.24-.1,.52-.21,.7-.41,.65-.75,1.11-1.66,1.27-2.65,.04-.08,.03-.14-.03-.19-.04-.07-.1-.12-.2-.13-.24-.08-.58-.05-.81,0-.33,.06-.67,.15-.96,.31l-.24,.14c-.12,.07-.21,.17-.27,.29h0Z" style="fill: #231f20;"/>
  </g>
  <g id="david-drop_Path_" data-name="david-drop&amp;lt;Path&amp;gt;">
    <path d="M37.42,2.76c.03,14.28-2.17,28.44-2.26,42.71-.03,4.33,.14,8.65,.5,12.96,.09,1.08,2.63,.49,2.53-.68-.78-9.38-.45-18.76,.27-28.14s1.53-18.02,1.51-27.08c0-1.27-2.56-.85-2.56,.22h0Z" style="fill: #231f20;"/>
  </g>
  <g id="david_Path_" data-name="david&amp;lt;Path&amp;gt;">
    <path d="M28.36,41.39c-6.27,.96-12.75-1.24-17.4-5.51-4.34-3.98-8.15-11.03-5.61-16.97,1.54-3.61,5.55-4.6,9.04-5.4,4.02-.92,8.16-1.24,12.27-1.31s8.32,.08,12.46,.28,8.1,.79,11.66,2.99c12.66,7.81,17.96,25.99,9.44,38.66-2.12,3.15-5.05,5.66-8.71,6.77-3.95,1.19-8.3,1.43-12.4,1.29-3.63-.12-8.83-.09-11.35-3.17-2.91-3.56,.55-6.88,3.83-8.29,3.72-1.6,7.82-2.52,11.71-3.62,4.13-1.17,8.27-2.27,12.43-3.32,8.32-2.09,16.7-3.94,25.12-5.54,2.02-.38,4.44-1.22,6.47-.65l1.49-1.59c-3.5-.94-7.6-.74-10.77,1.16-2.38,1.42-4.43,4.59-1.84,6.88s6.45,1.07,9.11-.35,5.3-3.81,4.96-7.11l-2.43,.87c.61,1.07-.08,2.49-.05,3.65,.03,.99,.47,1.84,1.29,2.42,1.78,1.25,4.39,1.05,6.44,.86,2.46-.22,5.05-.88,6.89-2.62,1.61-1.52,2.53-3.87,1.69-6.01l-2.53,.68c1.45,3.09,2.46,6.33,3.03,9.7,.08,.45,.78,.55,1.13,.51,2.06-.26,3.79-1.35,4.96-3.06,1.38-2.02,1.56-4.55,1.71-6.92,.07-1.08-1.57-.71-2.1-.39-1.21,.73-1.46,2.32-.5,3.39,1.17,1.3,3.61,1.36,5.21,1.45,3.23,.2,8.19-1.34,7.5-5.51l-2.53,.68c.57,1.98-.11,4.02,.2,6.02,.33,2.18,2.19,3.15,4.25,3.21,4.41,.13,9.26-1.75,12.22-5.06,1.04-1.16-1.39-1.41-2.09-.63-2.27,2.53-6.16,4.26-9.59,3.97-2.03-.17-2.36-1.8-2.3-3.53,.05-1.57,.29-3.13-.16-4.67-.31-1.07-2.71-.41-2.53,.68,.41,2.45-2.12,3.25-4.06,3.14-.94-.05-1.96-.12-2.87-.38-.45-.13-2.05-1.18-1.11-1.75l-2.1-.39c-.16,2.57-.42,7.62-3.85,8.05l1.13,.51c-.57-3.37-1.58-6.61-3.03-9.7-.47-1-2.93-.34-2.53,.68,.66,1.68,.08,3.5-1.25,4.7-1.54,1.38-3.82,1.55-5.78,1.64-1.4,.06-3.68,.1-4.13-1.61s.68-3.13-.25-4.77c-.5-.88-2.53-.08-2.43,.87,.23,2.17-1.41,3.83-3.13,4.88s-4.56,2.31-6.33,.61,.01-3.94,1.77-4.75c2.25-1.04,4.91-1.04,7.27-.41,.57,.15,1.4,0,1.79-.48,.34-.43,.29-.95-.3-1.11-2.16-.61-4.32-.09-6.47,.31-2.39,.44-4.77,.91-7.15,1.39-4.84,.98-9.66,2.04-14.46,3.19-9.37,2.23-18.84,4.56-27.97,7.66-3.34,1.13-7.55,3.03-8.54,6.79-1.06,4.03,2.93,6.85,6.33,7.67,4.49,1.09,9.41,1.11,13.99,.73,4.24-.35,8.58-1.12,12.22-3.46,6.86-4.42,10.33-13.11,10.23-21.04-.11-8.14-3.82-15.94-9.66-21.55-2.99-2.87-6.5-5.14-10.58-6.09-4.52-1.05-9.3-.97-13.92-1.08s-9.2-.08-13.76,.51c-4.16,.53-8.84,1.33-12.48,3.55C-.03,18.64,1.63,27.65,5.33,33.12c3.91,5.78,10.62,9.58,17.56,10.15,1.74,.14,3.49,.08,5.21-.19,.48-.07,1.38-.35,1.41-.97s-.65-.81-1.14-.73h0Z" style="fill: #231f20;"/>
  </g>
</svg>